<svg xmlns="http://www.w3.org/2000/svg" width="600" height="300" viewBox="0 0 158.75 79.375"><path fill="#ff5726" d="M0 79.375V0h158.75v79.375z" style="mix-blend-mode:normal;fill:#ff5726;fill-opacity:1;fill-rule:nonzero;stroke:none;stroke-width:.898027;stroke-linecap:butt;stroke-linejoin:miter;stroke-miterlimit:10;stroke-dasharray:none;stroke-dashoffset:0"/><path fill="#ff6a45" d="M.20923618 39.687502c0-43.7220435 35.44371882-79.165766 79.16576582-79.165766 43.722038 0 79.165768 35.4437225 79.165768 79.165766 0 43.722035-35.44373 79.165768-79.165768 79.165768-43.722046 0-79.16576582-35.443733-79.16576582-79.165768z" style="mix-blend-mode:normal;fill:#ff7a5f;fill-opacity:1;fill-rule:nonzero;stroke:none;stroke-width:.936949;stroke-linecap:butt;stroke-linejoin:miter;stroke-miterlimit:10;stroke-dasharray:none;stroke-dashoffset:0"/><path fill="#ff5726" d="M10.001328 39.687502c0-38.3140187 31.059649-69.373671 69.373672-69.373671 38.31402 0 69.37367 31.0596523 69.37367 69.373671 0 38.31401-31.05965 69.373668-69.37367 69.373668S10.001331 78.001512 10.001331 39.687504z" style="mix-blend-mode:normal;fill:#ff5726;fill-opacity:1;fill-rule:nonzero;stroke:none;stroke-width:.936949;stroke-linecap:butt;stroke-linejoin:miter;stroke-miterlimit:10;stroke-dasharray:none;stroke-dashoffset:0"/><path fill="#ff6a45" d="M19.917383 39.687502c0-32.8375404 26.620087-59.457626 59.457626-59.457626 32.837541 0 59.457621 26.6200856 59.457621 59.457626 0 32.837532-26.62009 59.457627-59.457621 59.457627-32.837539 0-59.457624-26.620095-59.457626-59.457627z" style="mix-blend-mode:normal;fill:#ff7a5f;fill-opacity:1;fill-rule:nonzero;stroke:none;stroke-width:.936949;stroke-linecap:butt;stroke-linejoin:miter;stroke-miterlimit:10;stroke-dasharray:none;stroke-dashoffset:0"/><path fill="#ff5726" d="M29.95738 39.687502c0-27.292601 22.125025-49.4176273 49.417629-49.4176273 27.292601 0 49.417631 22.1250263 49.417631 49.4176273s-22.12503 49.417632-49.417631 49.417632c-27.292599 0-49.417624-22.125031-49.417624-49.417632z" style="mix-blend-mode:normal;fill:#ff5726;fill-opacity:1;fill-rule:nonzero;stroke:none;stroke-width:.936949;stroke-linecap:butt;stroke-linejoin:miter;stroke-miterlimit:10;stroke-dasharray:none;stroke-dashoffset:0"/><path fill="#ff6a45" d="M39.687495 39.687502C39.687495 17.768699 57.456198 0 79.375 0c21.9188 0 39.68751 17.768699 39.68751 39.687502 0 21.918804-17.76871 39.687505-39.687501 39.687505-21.918809 0-39.687508-17.7687-39.687508-39.687503z" style="mix-blend-mode:normal;fill:#ff7a5f;fill-opacity:1;fill-rule:nonzero;stroke:none;stroke-width:.936949;stroke-linecap:butt;stroke-linejoin:miter;stroke-miterlimit:10;stroke-dasharray:none;stroke-dashoffset:0"/><path fill="#ff5726" d="M49.789468 39.687502c0-16.339636 13.245894-29.585531 29.585532-29.585531 16.339634 0 29.58554 13.245895 29.58554 29.585531 0 16.339638-13.245895 29.585532-29.585531 29.585532-16.339641 0-29.585536-13.245894-29.585536-29.585532z" style="mix-blend-mode:normal;fill:#ff5726;fill-opacity:1;fill-rule:nonzero;stroke:none;stroke-width:.936949;stroke-linecap:butt;stroke-linejoin:miter;stroke-miterlimit:10;stroke-dasharray:none;stroke-dashoffset:0"/><path fill="#ff6a45" d="M59.51959 39.687502c0-10.965848 8.889571-19.855417 19.85541-19.855417 10.965846 0 19.855417 8.889569 19.855417 19.855417 0 10.965839-8.889571 19.855407-19.855408 19.855407-10.965848 0-19.855416-8.889568-19.855416-19.855407z" style="mix-blend-mode:normal;fill:#ff7a5f;fill-opacity:1;fill-rule:nonzero;stroke:none;stroke-width:.936949;stroke-linecap:butt;stroke-linejoin:miter;stroke-miterlimit:10;stroke-dasharray:none;stroke-dashoffset:0"/><path fill="#ff5726" d="M69.476944 39.687502c0-5.466545 4.431509-9.898053 9.898045-9.898053 5.466538 0 9.898055 4.431508 9.898055 9.898053 0 5.466538-4.431517 9.898045-9.898055 9.898045-5.466536 0-9.898045-4.431507-9.898045-9.898045z" style="mix-blend-mode:normal;fill:#ff5726;fill-opacity:1;fill-rule:nonzero;stroke:none;stroke-width:.936949;stroke-linecap:butt;stroke-linejoin:miter;stroke-miterlimit:10;stroke-dasharray:none;stroke-dashoffset:0"/><g transform="translate(52.132 11.398)"><g transform="translate(-212.757 -151.71031)"><g fill="#ffffff" stroke-miterlimit="10"><path d="M266.957,155.549c-0.939,1.231 -2.287,1.936 -4.047,2.111c-2.874,0.176 -4.516,0.323 -4.926,0.439c-0.059,1.231 -0.088,3.197 -0.088,5.894c0.029,2.757 0.117,6.744 0.264,11.963c0,1.114 0,2.697 0,4.75c0.353,8.327 0.528,11.992 0.528,10.994c0.058,2.815 -0.03,7.067 -0.264,12.755c-0.118,0.704 -0.528,1.495 -1.231,2.375c-0.704,0.88 -1.526,1.377 -2.463,1.495c-0.118,0 -0.88,-0.264 -2.287,-0.791c-0.176,-0.762 -0.411,-1.408 -0.704,-1.936c-1.174,-1.759 -2.757,-4.251 -4.749,-7.477c-1.291,-2.521 -3.314,-6.303 -6.069,-11.348c-1.936,-2.696 -4.838,-7.036 -8.708,-13.018c-0.411,-0.82 -1.115,-2.052 -2.111,-3.694h-0.176c-0.176,2.581 -0.147,5.189 0.088,7.828c0,0.118 0.044,0.323 0.132,0.616c0.088,0.294 0.132,0.527 0.132,0.703v6.069c0,2.815 -0.118,5.044 -0.352,6.686c0.059,0.821 0.207,2.022 0.443,3.606c0.827,0.47 1.832,0.703 3.015,0.703c0.473,0 1.122,-0.058 1.95,-0.176c0.827,-0.117 1.448,-0.176 1.862,-0.176c1.714,0 2.954,0.615 3.725,1.847c0.292,1.174 -0.323,2.111 -1.848,2.815c-1.29,0.646 -2.551,0.909 -3.782,0.791c-1.759,-0.116 -4.193,-0.023 -7.301,0.279c-1.114,0.125 -2.786,0.436 -5.014,0.932c-1.643,0.309 -3.138,0.432 -4.486,0.373c-2.639,-0.234 -3.958,-1.407 -3.958,-3.519c0,-0.352 0.058,-0.704 0.175,-1.056c0.929,-1.407 2.587,-2.111 4.971,-2.111c0.29,0 0.755,0 1.396,0c0.581,0 1.017,0 1.309,0c1.162,0 1.976,-0.204 2.441,-0.615c0,-0.353 0,-0.938 0,-1.76v-9.499c0.234,-0.646 0.322,-1.554 0.265,-2.728c-0.06,-0.996 -0.118,-1.992 -0.176,-2.99c-0.06,-1.583 -0.177,-3.02 -0.353,-4.311c-0.118,-2.11 -0.264,-4.926 -0.439,-8.443c0,0.176 0.028,-0.381 0.088,-1.672c0.058,-0.762 -0.132,-1.289 -0.571,-1.583c-0.44,-0.293 -1.13,-0.44 -2.067,-0.44c-0.47,0 -1.174,0.06 -2.111,0.177c-0.938,0.118 -1.643,0.176 -2.111,0.176c-2.229,0 -3.342,-1.173 -3.342,-3.519c0,-0.293 0.262,-0.704 0.787,-1.231c0.525,-0.528 0.964,-0.82 1.314,-0.88c0.758,-0.176 2.305,-0.204 4.641,-0.088c0.7,0 1.736,-0.044 3.107,-0.132c1.372,-0.088 2.351,-0.132 2.935,-0.132c0.408,0 1.079,0.298 2.014,0.895c0.935,0.597 1.576,1.191 1.927,1.787c0.059,0 1.714,2.955 4.964,8.861c1.292,2.402 2.776,4.88 4.452,7.428c1.674,2.55 3.628,5.641 5.861,9.272c1.468,2.521 3.613,6.329 6.435,11.427c0.234,-0.996 0.353,-2.052 0.353,-3.166c0,-0.293 0.058,-0.981 0.176,-2.067c0.118,-1.084 0.177,-1.861 0.177,-2.331c0,-0.469 -0.059,-1.216 -0.176,-2.243c-0.118,-1.025 -0.176,-1.568 -0.176,-1.627v-5.102c0,-0.528 -0.146,-7.741 -0.436,-21.639c-0.233,-0.058 -0.495,-0.088 -0.786,-0.088c-0.523,0 -1.309,0.118 -2.355,0.352c-1.048,0.235 -1.774,0.383 -2.182,0.44c-0.757,-0.058 -1.775,-0.088 -3.055,-0.088c-0.058,-0.058 -0.451,-0.337 -1.178,-0.836c-0.729,-0.498 -1.062,-0.924 -1.004,-1.275c0,-0.409 0.146,-0.968 0.44,-1.671c0.82,-0.997 1.904,-1.584 3.254,-1.76c1.113,-0.058 2.229,-0.117 3.343,-0.176c2.99,-0.058 7.71,-0.381 14.161,-0.968c0.88,-0.116 1.817,0.132 2.815,0.748c0.996,0.615 1.495,1.275 1.495,1.979c-0.001,0.299 -0.12,0.563 -0.353,0.796z" stroke="#ffffff" stroke-width="2.5"/><path d="M222.83445,165.68401c0,-0.69036 0.55964,-1.25 1.25,-1.25c0.69036,0 1.25,0.55964 1.25,1.25c0,0.69036 -0.55964,1.25 -1.25,1.25c-0.69036,0 -1.25,-0.55964 -1.25,-1.25z" stroke="none" stroke-width="0.5"/><path d="M257.35172,191.20262c0,-0.69036 0.55964,-1.25 1.25,-1.25c0.69036,0 1.25,0.55964 1.25,1.25c0,0.69036 -0.55964,1.25 -1.25,1.25c-0.69036,0 -1.25,-0.55964 -1.25,-1.25z" stroke="none" stroke-width="0.5"/></g></g></g></svg>
