<svg xmlns="http://www.w3.org/2000/svg" width="15.893" height="15.893" viewBox="0 0 15.893 15.893"><path d="M9.021 12.294v-2.107l-6.839-.905C1.398 9.184.846 8.486.962 7.727c.09-.612.603-1.09 1.22-1.164l6.839-.905V3.6c0-.586.732-.869 1.156-.464l4.576 4.345a.643.643 0 0 1 0 .918l-4.576 4.36c-.424.404-1.156.11-1.156-.465" fill="none" stroke-opacity=".15" stroke="#000" stroke-width="1.75"/><path d="M9.021 12.294v-2.107l-6.839-.905C1.398 9.184.846 8.486.962 7.727c.09-.612.603-1.09 1.22-1.164l6.839-.905V3.6c0-.586.732-.869 1.156-.464l4.576 4.345a.643.643 0 0 1 0 .918l-4.576 4.36c-.424.404-1.156.11-1.156-.465" fill="#fff" fill-rule="evenodd"/><path d="M0 15.892V0h15.892v15.892z" fill="none"/></svg>